<svg width="512" height="512" viewBox="0 0 512 512" fill="none" xmlns="http://www.w3.org/2000/svg">
<path d="M464.04 235C466.214 235 467.968 236.799 467.882 238.971C463.256 355.331 357.924 449.196 227.56 452.921C225.611 452.977 224 451.403 224 449.453V282.875C224 280.763 225.636 279.024 227.728 278.738C250.673 275.609 268.919 259.536 272.812 239.151C273.257 236.818 275.215 235 277.591 235H464.04Z" fill="#3B82F6"/>
<path d="M21 266C21 254.954 29.9543 246 41 246H191C202.046 246 211 254.954 211 266V460C211 471.046 202.046 480 191 480H41C29.9543 480 21 471.046 21 460V266Z" fill="#3B82F6"/>
<path d="M257 52C257 40.9543 265.954 32 277 32H471C482.046 32 491 40.9543 491 52V202C491 213.046 482.046 222 471 222H277C265.954 222 257 213.046 257 202V52Z" fill="#3B82F6"/>
</svg>
